<svg xmlns="http://www.w3.org/2000/svg" width="600" height="750" viewBox="0 0 600 750"><rect width="600" height="750" fill="#e7e3df"/><rect x="30" y="30" width="540" height="690" rx="28" fill="#f3f0ec"/><path d="M225 145 L155 190 L110 300 L175 328 L207 265 L210 390 L390 390 L393 265 L425 328 L490 300 L445 190 L375 145 L340 177 L260 177Z" fill="#5b476d"/><path d="M215 410 H385 L405 625 L323 630 L300 460 L277 630 L195 625Z" fill="#29262c"/><path d="M195 627 H277 L278 659 H168 Q154 637 195 627 M323 627 H405 Q446 637 432 659 H322Z" fill="#b9b4ad"/><text x="300" y="89" text-anchor="middle" font-family="sans-serif" font-size="24" fill="#4e4842">Streetwear</text><text x="300" y="695" text-anchor="middle" font-family="sans-serif" font-size="15" fill="#746d65">Sample outfit illustration · burger.ai</text></svg>